<svg viewBox="75 48 520 575" fill="none" xmlns="http://www.w3.org/2000/svg">
<path d="M564.89 63.8946H105.11C104.558 63.8946 104.11 64.3423 104.11 64.8946L104.11 164.307C104.11 164.572 104.215 164.827 104.403 165.014L272.626 333.237C272.813 333.425 272.918 333.679 272.918 333.944V604.373C272.918 605.143 273.752 605.624 274.418 605.239L396.582 534.709C396.891 534.53 397.082 534.2 397.082 533.843V333.944C397.082 333.679 397.187 333.425 397.375 333.237L565.597 165.014C565.785 164.827 565.89 164.572 565.89 164.307V64.8946C565.89 64.3423 565.442 63.8946 564.89 63.8946Z" stroke="black" stroke-width="29" stroke-linecap="round"/>
</svg>
