<svg width="734" height="734" viewBox="0 0 734 734" fill="none" xmlns="http://www.w3.org/2000/svg">
<mask id="path-1-inside-1_20_47" fill="white">
<rect x="146" y="146.494" width="441.149" height="441.149" rx="31"/>
</mask>
<rect x="146" y="146.494" width="441.149" height="441.149" rx="31" stroke="black" stroke-width="70" mask="url(#path-1-inside-1_20_47)"/>
<path d="M218.89 146C218.89 154.837 226.054 162 234.89 162C243.727 162 250.89 154.837 250.89 146H234.89H218.89ZM250.89 16C250.89 7.16344 243.727 0 234.89 0C226.054 0 218.89 7.16344 218.89 16H234.89H250.89ZM482.259 146C482.259 154.837 489.422 162 498.259 162C507.095 162 514.259 154.837 514.259 146H498.259H482.259ZM514.259 16C514.259 7.16344 507.095 0 498.259 0C489.422 0 482.259 7.16344 482.259 16H498.259H514.259ZM348.89 146C348.89 154.837 356.054 162 364.89 162C373.727 162 380.89 154.837 380.89 146H364.89H348.89ZM380.89 16C380.89 7.16344 373.727 0 364.89 0C356.054 0 348.89 7.16344 348.89 16H364.89H380.89ZM218.89 717.643C218.89 726.48 226.054 733.643 234.89 733.643C243.727 733.643 250.89 726.48 250.89 717.643H234.89H218.89ZM250.89 587.643C250.89 578.807 243.727 571.643 234.89 571.643C226.054 571.643 218.89 578.807 218.89 587.643H234.89H250.89ZM482.259 717.643C482.259 726.48 489.422 733.643 498.259 733.643C507.095 733.643 514.259 726.48 514.259 717.643H498.259H482.259ZM514.259 587.643C514.259 578.807 507.095 571.643 498.259 571.643C489.422 571.643 482.259 578.807 482.259 587.643H498.259H514.259ZM348.89 717.643C348.89 726.48 356.054 733.643 364.89 733.643C373.727 733.643 380.89 726.48 380.89 717.643H364.89H348.89ZM380.89 587.643C380.89 578.807 373.727 571.643 364.89 571.643C356.054 571.643 348.89 578.807 348.89 587.643H364.89H380.89ZM717.149 514.753C725.986 514.753 733.149 507.59 733.149 498.753C733.149 489.916 725.986 482.753 717.149 482.753V498.753V514.753ZM587.149 482.753C578.312 482.753 571.149 489.916 571.149 498.753C571.149 507.59 578.312 514.753 587.149 514.753V498.753V482.753ZM717.149 251.385C725.986 251.385 733.149 244.221 733.149 235.385C733.149 226.548 725.986 219.385 717.149 219.385V235.385V251.385ZM587.149 219.385C578.312 219.385 571.149 226.548 571.149 235.385C571.149 244.221 578.312 251.385 587.149 251.385V235.385V219.385ZM717.149 384.753C725.986 384.753 733.149 377.59 733.149 368.753C733.149 359.916 725.986 352.753 717.149 352.753V368.753V384.753ZM587.149 352.753C578.312 352.753 571.149 359.916 571.149 368.753C571.149 377.59 578.312 384.753 587.149 384.753V368.753V352.753ZM146 514.753C154.837 514.753 162 507.59 162 498.753C162 489.916 154.837 482.753 146 482.753V498.753V514.753ZM16 482.753C7.16344 482.753 0 489.916 0 498.753C0 507.59 7.16344 514.753 16 514.753V498.753V482.753ZM146 251.385C154.837 251.385 162 244.221 162 235.385C162 226.548 154.837 219.385 146 219.385V235.385V251.385ZM16 219.385C7.16344 219.385 0 226.548 0 235.385C0 244.221 7.16344 251.385 16 251.385V235.385V219.385ZM146 384.753C154.837 384.753 162 377.59 162 368.753C162 359.916 154.837 352.753 146 352.753V368.753V384.753ZM16 352.753C7.16344 352.753 0 359.916 0 368.753C0 377.59 7.16344 384.753 16 384.753V368.753V352.753ZM382.575 261.572C382.575 252.735 375.411 245.572 366.575 245.572C357.738 245.572 350.575 252.735 350.575 261.572H366.575H382.575ZM355.261 483.385C361.509 489.634 371.64 489.634 377.888 483.385L479.712 381.562C485.96 375.314 485.96 365.183 479.712 358.935C473.463 352.686 463.333 352.686 457.084 358.935L366.575 449.444L276.065 358.935C269.817 352.686 259.686 352.686 253.438 358.935C247.189 365.183 247.189 375.314 253.438 381.562L355.261 483.385ZM234.89 146H250.89V16H234.89H218.89V146H234.89ZM498.259 146H514.259V16H498.259H482.259V146H498.259ZM364.89 146H380.89V16H364.89H348.89V146H364.89ZM234.89 717.643H250.89V587.643H234.89H218.89V717.643H234.89ZM498.259 717.643H514.259V587.643H498.259H482.259V717.643H498.259ZM364.89 717.643H380.89V587.643H364.89H348.89V717.643H364.89ZM717.149 498.753V482.753H587.149V498.753V514.753H717.149V498.753ZM717.149 235.385V219.385H587.149V235.385V251.385H717.149V235.385ZM717.149 368.753V352.753H587.149V368.753V384.753H717.149V368.753ZM146 498.753V482.753H16V498.753V514.753H146V498.753ZM146 235.385V219.385H16V235.385V251.385H146V235.385ZM146 368.753V352.753H16V368.753V384.753H146V368.753ZM366.575 261.572H350.575V472.072H366.575H382.575V261.572H366.575Z" fill="black"/>
</svg>
