<svg width="634" height="668" viewBox="0 0 634 668" fill="none" xmlns="http://www.w3.org/2000/svg">
<path d="M85.8547 287.608C85.8547 305.488 72.4206 319.982 50.9237 319.982C29.4267 319.982 12 305.488 12 287.608C12 269.728 29.4267 255.234 50.9237 255.234C72.4206 255.234 85.8547 269.728 85.8547 287.608ZM85.8547 287.608V65.0725C85.8547 62.2499 87.3103 59.764 89.4313 58.9643L243.472 12.2754C246.67 11.0698 249.877 14.1283 249.877 18.3836V237.156M249.877 237.156C249.877 255.036 236.443 269.53 214.946 269.53C193.449 269.53 176.022 255.036 176.022 237.156C176.022 219.276 193.449 204.782 214.946 204.782C236.443 204.782 249.877 219.276 249.877 237.156Z" stroke="black" stroke-width="24"/>
<path d="M468.387 379.57C468.387 412.868 468.387 431.538 468.387 464.836M506.444 379.57C506.444 412.868 506.444 431.538 506.444 464.836M586.117 379.57V464.836M545.706 379.57V464.836M399.776 525.782V562.448C399.776 569.084 405.155 574.464 411.791 574.464C418.427 574.464 423.807 579.843 423.807 586.479V590.87C423.807 597.506 418.427 602.886 411.791 602.886C405.155 602.886 399.776 608.265 399.776 614.901V637.669C399.776 647.61 407.835 655.669 417.776 655.669H604.382C614.323 655.669 622.382 647.61 622.382 637.669V373.208C622.382 363.267 614.323 355.208 604.382 355.208H449.396C439.455 355.208 431.396 363.267 431.396 373.208V467.501C431.396 471.058 430.342 474.536 428.367 477.494L402.805 515.789C400.83 518.747 399.776 522.225 399.776 525.782Z" stroke="black" stroke-width="22"/>
<path d="M326.609 608.568C192.325 608.568 80.668 511.689 57.719 384.012M326.609 62.1498C462.091 62.1498 574.54 160.765 596.092 290.13" stroke="black" stroke-width="25" stroke-linecap="round"/>
<path d="M264.749 547.194L331.006 609.64C331.508 610.113 331.392 610.94 330.779 611.256L249.877 653.019" stroke="black" stroke-width="28" stroke-linecap="round"/>
<path d="M372.385 121.799L309.487 55.9718C309.01 55.4732 309.17 54.6534 309.798 54.3696L392.776 16.8975" stroke="black" stroke-width="28" stroke-linecap="round"/>
</svg>
