<svg width="251" height="329" viewBox="0 0 251 329" fill="none" xmlns="http://www.w3.org/2000/svg">
<path d="M82.6115 38.3617C82.6115 71.6601 82.6115 90.3292 82.6115 123.628M120.668 38.3617C120.668 71.6601 120.668 90.3292 120.668 123.628M200.341 38.3617V123.628M159.93 38.3617V123.628M14 184.574V221.24C14 227.876 19.3796 233.255 26.0157 233.255C32.6517 233.255 38.0313 238.635 38.0313 245.271V249.662C38.0313 256.298 32.6517 261.677 26.0157 261.677C19.3796 261.677 14 267.057 14 273.693V296.461C14 306.402 22.0589 314.461 32 314.461H218.606C228.547 314.461 236.606 306.402 236.606 296.461V32C236.606 22.0589 228.547 14 218.606 14H63.6202C53.6791 14 45.6202 22.0589 45.6202 32V126.292C45.6202 129.85 44.5662 133.327 42.5912 136.286L17.029 174.58C15.054 177.539 14 181.017 14 184.574Z" stroke="black" stroke-width="28"/>
</svg>
