<svg width="670" height="670" viewBox="0 0 670 670" fill="none" xmlns="http://www.w3.org/2000/svg">
<path d="M306.418 383.069L140.081 548.71C139.721 549.069 106.971 581.945 107.331 582.303L152.28 627.064C152.64 627.423 185.975 595.128 186.335 594.77L352.142 429.655M352.14 429.655L400.059 381.937M306.417 383.069L440.733 249.313C441.375 248.674 441.505 247.683 441.063 246.892C432.453 231.454 429.336 216.964 429.336 197.816C429.336 137.669 478.3 88.9099 538.699 88.9099C546.096 88.9099 553.321 89.6411 560.306 91.035C565.081 91.9878 566.565 97.7878 563.122 101.217L518.864 145.289C518.522 145.629 518.478 146.154 518.731 146.543C518.807 146.66 518.89 146.774 518.94 146.904L538.699 197.816L586.486 214.423C586.842 214.547 587.238 214.459 587.509 214.197L636.663 166.642C639.06 164.254 643.123 165.182 644.036 168.434C646.659 177.781 648.062 187.635 648.062 197.816C648.062 257.963 599.099 306.722 538.699 306.722C520.435 306.722 504.262 303.024 489.186 295.183C488.404 294.776 487.447 294.914 486.822 295.536L398.922 383.069M255.866 250.566L351.783 337.954M215.118 291.143L255.866 250.566L272.382 234.119C272.759 233.743 272.779 233.142 272.432 232.737C262.429 221.052 253.639 196.539 259.627 177.656C267.267 153.564 279.5 151.926 290.084 149.104C309.119 144.027 336.403 149.104 357.976 160.525L373.575 170.346C374.241 170.765 375.101 170.287 375.06 169.501C374.213 153.111 362.029 135.565 345.92 123.089C334.46 114.213 301.428 101.422 244.331 101.422C225.521 101.422 219.126 100.733 183.489 123.089C159.876 137.901 122.216 179.168 101.781 206.644C101.609 206.875 101.55 207.162 101.61 207.442L109.427 244.096C109.499 244.431 109.394 244.78 109.149 245.019L83.6442 270.007C83.4954 270.152 83.3049 270.248 83.0992 270.28L50.2963 275.42C50.0691 275.455 49.8611 275.568 49.7074 275.739L22.5807 305.919C22.2217 306.319 22.2423 306.93 22.6275 307.305L100.729 383.206C101.151 383.616 101.835 383.575 102.205 383.116L130.543 347.964C130.773 347.679 130.829 347.291 130.688 346.953L123.971 330.788C123.921 330.667 123.895 330.534 123.895 330.403C123.906 316.535 125.102 308.084 139.99 301.287C154.545 294.643 182.91 309.728 190.3 312.886C190.651 313.036 191.048 312.959 191.331 312.702L215.118 291.143ZM215.118 291.143L306.288 383.296M353.242 430.757L547.909 627.523C548.306 627.924 548.955 627.918 549.344 627.51L604.542 569.619C604.929 569.213 604.907 568.568 604.492 568.19L401.551 383.296" stroke="black" stroke-width="23" stroke-linecap="round"/>
</svg>
