<svg width="670" height="670" viewBox="0 0 670 670" fill="none" xmlns="http://www.w3.org/2000/svg">
<path d="M335.654 325.064C334.73 241.737 333.054 153.773 331.61 91.3291M335.654 325.064L435.772 267.261C437.319 266.368 438.272 264.717 438.272 262.931V188.041M335.654 325.064C336.084 363.783 336.351 401.502 336.356 435.194M336.356 588.247C336.356 528.481 336.369 508.88 336.356 435.194M336.356 435.194L242.078 361.646C239.892 359.94 238.614 357.322 238.614 354.55V265.818" stroke="black" stroke-width="32"/>
<path d="M382.664 112.364H280.307L331.485 23.7211L382.664 112.364Z" fill="black" stroke="black"/>
<rect x="395.66" y="129.782" width="85.2261" height="85.2261" fill="black" stroke="black"/>
<path d="M336.356 528.395C369.047 528.395 395.548 554.896 395.548 587.587C395.548 620.278 369.047 646.779 336.356 646.779C303.666 646.779 277.164 620.278 277.164 587.587C277.164 554.896 303.666 528.395 336.356 528.395ZM238.614 216.008C265.952 216.008 288.114 238.17 288.114 265.508C288.114 292.846 265.952 315.008 238.614 315.008C211.276 315.008 189.114 292.846 189.114 265.508C189.114 238.17 211.276 216.008 238.614 216.008Z" fill="black" stroke="black"/>
</svg>
